# xmcd CD database file
#
# Track frame offsets:
#	150
#	14292
#	30712
#	47791
#	61302
#	76734
#	91108
#	105953
#	123425
#	138255
#	154175
#	169575
#	182831
#	183165
#
# Disc length: 2651 seconds
#
# Revision: 1
# Processed by: cddbd v1.5.2PL0 Copyright (c) Steve Scherf et al.
# Submitted via: CDex 1.51
#
DISCID=a20a590e
DTITLE=Dustin Lynch - Dustin Lynch
DYEAR=2012
DGENRE=Country
TTITLE0=She Cranks My Tractor 
TTITLE1=Waiting
TTITLE2=Cowboys And Angels 
TTITLE3=Wild In Your Smile
TTITLE4=Last Lap
TTITLE5=Sittin' Pretty
TTITLE6=Yeah Yeah Yeah
TTITLE7=Rock You Sweet
TTITLE8=Unwind It 
TTITLE9=Hurricane 
TTITLE10=Dancing In The Headlights
TTITLE11=Name On It
TTITLE12=16:9
TTITLE13=Your Plan
EXTD=YEAR: 2012
EXTT0=
EXTT1=
EXTT2=
EXTT3=
EXTT4=
EXTT5=
EXTT6=
EXTT7=
EXTT8=
EXTT9=
EXTT10=
EXTT11=
EXTT12=
EXTT13=
PLAYORDER=
